<?xml version="1.0" encoding="UTF-8"?><svg id="LOGOS_VARIABLES" xmlns="http://www.w3.org/2000/svg" xmlns:xlink="http://www.w3.org/1999/xlink" viewBox="0 0 137.166 36.85"><defs><style>.cls-1{clip-path:url(#clippath);}.cls-2{fill:none;}.cls-2,.cls-3,.cls-4,.cls-5{stroke-width:0px;}.cls-6{font-family:Arial-BoldMT, Arial;font-size:9.221px;font-weight:700;}.cls-6,.cls-3{fill:#0a4f9e;}.cls-4{fill:#fff;}.cls-5{fill:#fd0;}</style><clipPath id="clippath"><rect class="cls-2" x="9.249" y="4.261" width="122.917" height="28.303"/></clipPath></defs><g id="EU_COFUNDED"><g class="cls-1"><rect class="cls-3" x="9.627" y="4.582" width="41.054" height="27.606"/><path class="cls-4" d="m9.981,4.936h40.345v26.896H9.981V4.936Zm-.709-.675v28.281h41.763V4.261H9.272Z"/><polygon class="cls-5" points="30.136 25.973 30.47 27.001 31.55 27.001 30.676 27.636 31.01 28.663 30.136 28.028 29.262 28.663 29.596 27.636 28.722 27.001 29.802 27.001 30.136 25.973"/><polygon class="cls-5" points="25.575 24.34 25.909 25.368 26.989 25.368 26.115 26.003 26.449 27.03 25.575 26.395 24.701 27.03 25.035 26.003 24.161 25.368 25.241 25.368 25.575 24.34"/><polygon class="cls-5" points="22.66 21.24 22.994 22.267 24.074 22.267 23.2 22.902 23.534 23.93 22.66 23.295 21.786 23.93 22.12 22.902 21.246 22.267 22.327 22.267 22.66 21.24"/><polygon class="cls-5" points="21.156 16.959 21.49 17.986 22.57 17.986 21.696 18.621 22.03 19.649 21.156 19.014 20.282 19.649 20.616 18.621 19.742 17.986 20.822 17.986 21.156 16.959"/><polygon class="cls-5" points="22.5 12.286 22.833 13.313 23.914 13.313 23.04 13.948 23.374 14.976 22.5 14.341 21.626 14.976 21.959 13.948 21.086 13.313 22.166 13.313 22.5 12.286"/><polygon class="cls-5" points="25.781 9.194 26.114 10.222 27.195 10.222 26.321 10.857 26.654 11.884 25.781 11.249 24.907 11.884 25.24 10.857 24.366 10.222 25.447 10.222 25.781 9.194"/><polygon class="cls-5" points="30.173 7.979 30.505 9.007 31.585 9.009 30.71 9.642 31.042 10.67 30.169 10.034 29.294 10.667 29.63 9.64 28.757 9.004 29.837 9.006 30.173 7.979"/><polygon class="cls-5" points="34.554 9.21 34.888 10.238 35.968 10.238 35.094 10.873 35.428 11.9 34.554 11.265 33.68 11.9 34.014 10.873 33.14 10.238 34.22 10.238 34.554 9.21"/><polygon class="cls-5" points="37.826 12.315 38.16 13.342 39.24 13.342 38.366 13.977 38.7 15.004 37.826 14.369 36.952 15.004 37.286 13.977 36.412 13.342 37.492 13.342 37.826 12.315"/><polygon class="cls-5" points="39.15 16.993 39.484 18.021 40.564 18.021 39.69 18.656 40.024 19.683 39.15 19.048 38.276 19.683 38.61 18.656 37.736 18.021 38.816 18.021 39.15 16.993"/><polygon class="cls-5" points="37.63 21.265 37.963 22.292 39.044 22.292 38.17 22.927 38.503 23.954 37.63 23.319 36.756 23.954 37.089 22.927 36.215 22.292 37.296 22.292 37.63 21.265"/><polygon class="cls-5" points="34.706 24.36 35.04 25.388 36.12 25.388 35.246 26.023 35.58 27.05 34.706 26.415 33.832 27.05 34.166 26.023 33.292 25.388 34.372 25.388 34.706 24.36"/><text class="cls-6" transform="translate(55.478 15.165)"><tspan x="0" y="0">Cofunded by the</tspan></text><text class="cls-6" transform="translate(55.478 26.23)"><tspan x="0" y="0">European Union</tspan></text></g></g></svg>