<?xml version="1.0" encoding="UTF-8"?><svg id="LOGOS_VARIABLES" xmlns="http://www.w3.org/2000/svg" xmlns:xlink="http://www.w3.org/1999/xlink" viewBox="0 0 46.744 36.85"><defs><style>.cls-1{clip-path:url(#clippath);}.cls-2{fill:none;}.cls-2,.cls-3,.cls-4,.cls-5{stroke-width:0px;}.cls-3{fill:url(#linear-gradient);}.cls-6{clip-path:url(#clippath-1);}.cls-7{clip-path:url(#clippath-2);}.cls-4{fill:#2b2b2a;}.cls-5{fill:#eb5f21;}</style><clipPath id="clippath"><rect class="cls-2" x="8.953" y="2.794" width="29.873" height="29.873"/></clipPath><clipPath id="clippath-1"><path class="cls-2" d="m31.825,29.771c-.12.078-.153.24-.074.359.078.12.239.153.358.075.122-.078.154-.239.075-.359-.049-.076-.132-.118-.217-.118-.049,0-.098.014-.142.042m2.223-1.805c-.103.101-.103.264-.002.367.1.101.265.103.367.003.102-.1.102-.264.002-.367-.051-.051-.118-.077-.185-.077-.066,0-.131.025-.182.075m-1.983-.14c-.15.098-.192.299-.095.449.097.15.298.192.448.095.15-.098.192-.299.095-.448-.062-.096-.166-.148-.273-.148-.06,0-.121.017-.176.052m-1.983-.487c-.234.15-.303.463-.153.7.15.234.463.303.698.153.236-.15.305-.464.153-.699-.096-.151-.26-.234-.427-.234-.093,0-.187.026-.272.08m5.544-1.229c-.083.116-.057.279.059.362.116.083.279.057.362-.059.083-.116.057-.279-.059-.362-.046-.033-.099-.049-.151-.049-.08,0-.16.037-.211.107m-1.711-.118c-.128.126-.129.332-.005.459.126.127.332.129.459.003.128-.126.129-.331.002-.458-.063-.065-.146-.097-.23-.097-.082,0-.164.031-.227.093m-2.034-.088c-.2.195-.204.515-.01.716.195.2.515.205.716.011.201-.195.205-.516.01-.716-.099-.102-.231-.154-.363-.154-.127,0-.254.048-.352.143m-1.835-.603c-.248.159-.317.49-.157.737.159.247.489.317.736.157.247-.16.318-.489.157-.737-.102-.157-.273-.243-.448-.243-.099,0-.199.028-.289.086m-1.693-.735c-.292.186-.376.573-.19.863.186.291.573.376.864.19.291-.186.376-.573.19-.864-.12-.186-.322-.288-.528-.288-.115,0-.232.032-.336.098m5.04-.483c-.156.232-.095.545.137.702.231.156.545.094.702-.137.156-.232.094-.546-.137-.702-.087-.059-.185-.087-.282-.087-.163,0-.322.079-.42.224m-2.011-.111c-.212.204-.219.541-.014.753.205.211.542.217.753.013.212-.204.217-.541.013-.753-.104-.108-.243-.163-.383-.163-.133,0-.266.05-.369.15m3.929-.052c-.101.149-.064.35.084.451.148.101.351.063.451-.085.102-.148.063-.35-.085-.451-.056-.038-.119-.057-.182-.057-.103,0-.205.049-.268.141m1.779-.384c-.058.131.002.284.133.342.13.059.283-.001.341-.132.059-.131-.001-.284-.132-.342-.034-.015-.07-.022-.105-.022-.099,0-.194.057-.237.154m-7.484.008c-.246.243-.248.639-.005.884.243.245.638.247.884.004.246-.243.248-.638.005-.884-.122-.123-.283-.185-.445-.185-.159,0-.318.06-.439.181m-1.822-.919c-.311.245-.364.697-.118,1.008.246.311.698.364,1.008.118.311-.246.364-.697.118-1.008-.142-.179-.352-.273-.564-.273-.156,0-.313.05-.445.155m2.818-.268c-.195.285-.123.674.162.869.286.195.674.122.87-.163.196-.285.122-.674-.162-.869-.108-.074-.231-.109-.352-.109-.199,0-.395.095-.516.272m1.899-.061c-.165.243-.102.574.142.74.242.165.573.101.74-.142.164-.243.101-.574-.142-.739-.092-.062-.196-.092-.298-.092-.171,0-.338.082-.441.234m1.918-.113c-.109.257.01.553.267.664.257.109.553-.01.664-.266.109-.258-.009-.555-.267-.665-.065-.028-.132-.041-.199-.041-.197,0-.383.115-.465.308m-8.6-.914c-.44.142-.681.613-.539,1.053.142.439.613.681,1.052.539.441-.142.682-.613.54-1.053-.115-.355-.443-.581-.796-.581-.085,0-.171.013-.257.041m10.527.148c-.068.166.01.355.176.423.166.068.355-.01.423-.177.069-.165-.01-.354-.176-.422-.041-.017-.082-.025-.124-.025-.127,0-.248.076-.299.201m-7.213-.278c-.217.332-.124.777.207.994.332.217.777.124.994-.208.218-.332.125-.776-.207-.993-.121-.079-.258-.118-.392-.118-.234,0-.464.114-.601.325m2.282-.274c-.133.32.02.685.34.816.319.132.685-.02.817-.339.131-.32-.021-.685-.34-.816-.078-.032-.159-.048-.239-.048-.246,0-.478.146-.578.387m1.781-.254c-.117.269.007.583.277.701.269.117.583-.007.7-.277.117-.269-.006-.584-.276-.7-.069-.03-.141-.044-.212-.044-.206,0-.402.12-.489.32m4.852-.15c-.027.141.065.276.205.304.14.027.277-.064.305-.205.028-.14-.064-.276-.205-.304-.017-.003-.034-.005-.05-.005-.121,0-.23.086-.255.209m-10.937-.291c-.343.31-.37.839-.061,1.182.309.343.838.371,1.181.061.344-.31.371-.839.062-1.181-.165-.183-.393-.277-.622-.277-.2,0-.4.071-.56.215m7.972-.126c-.058.273.117.541.392.599.273.057.541-.118.599-.391.056-.274-.117-.541-.391-.599-.035-.008-.07-.011-.105-.011-.234,0-.444.163-.494.402m-5.242-.398c-.123.377.083.782.46.904.377.123.782-.083.904-.46.123-.377-.084-.782-.46-.904-.074-.024-.149-.036-.223-.036-.302,0-.583.193-.682.496m2.024-.234c-.071.339.147.669.485.739.338.07.669-.147.739-.485.07-.338-.147-.669-.485-.739-.043-.009-.085-.013-.127-.013-.29,0-.551.203-.611.498m4.965-.562c-.034.176.081.346.258.379.175.034.345-.082.379-.257.034-.176-.081-.346-.257-.379-.021-.004-.042-.006-.062-.006-.152,0-.287.108-.317.263m-3.264-.01c-.066.287.114.572.401.638.286.066.571-.114.637-.401.065-.286-.114-.572-.4-.637-.04-.009-.08-.014-.12-.014-.243,0-.461.167-.518.414m-5.748-.105c-.197.418-.016.916.401,1.113.418.196.916.017,1.112-.401.197-.418.017-.917-.401-1.113-.115-.054-.236-.08-.355-.08-.314,0-.615.178-.757.481m10.747-1.458c-.144.001-.258.119-.257.262.002.143.119.258.263.257.141-.001.255-.115.257-.255v-.007c-.001-.143-.117-.257-.259-.257h-.003m-6.526.541c-.002.346.275.627.62.63.346.003.628-.275.631-.62.002-.345-.276-.627-.622-.63h-.005c-.343,0-.622.277-.625.62m-1.899.031c-.008.397.305.725.702.734.396.009.724-.305.732-.701.01-.397-.305-.725-.701-.734-.005,0-.011,0-.016,0-.389,0-.708.311-.717.702m5.681-.746c-.28.002-.505.229-.502.509,0,.279.23.504.509.502.28-.002.505-.23.504-.509-.002-.278-.229-.502-.507-.502-.001,0-.002,0-.003,0m-2.246-.387c-.002.294.235.534.529.536.294.002.534-.234.536-.528.001-.294-.235-.534-.529-.537h-.003c-.292,0-.532.236-.533.529m-5.683.295c-.005.462.366.84.828.844.462.005.841-.365.845-.828.005-.462-.366-.841-.827-.845h-.009c-.459,0-.832.368-.836.828m9.203-1.22c-.178.004-.321.152-.317.331.003.179.152.321.331.317.179-.003.32-.152.318-.331-.004-.177-.149-.318-.324-.318h-.007m-4.794-.444c-.336.078-.546.414-.468.75.079.336.414.546.751.468.336-.079.545-.414.466-.751-.067-.288-.323-.484-.607-.484-.047,0-.094.005-.142.016m-2.054-.414c-.377.122-.584.526-.462.903.121.377.525.584.902.463.377-.122.585-.526.463-.904-.098-.304-.38-.497-.683-.497-.073,0-.148.011-.221.035m5.211-.183c-.273.057-.449.325-.392.599s.325.448.6.392c.272-.058.448-.325.391-.598-.05-.239-.261-.403-.495-.403-.034,0-.069.003-.104.011m2.73-.347c-.141.029-.23.167-.2.307.029.14.166.23.307.2.14-.03.229-.167.2-.307-.025-.122-.134-.206-.253-.206-.018,0-.036.002-.054.006m-10.559-.135c-.419.193-.604.689-.412,1.109.193.42.69.605,1.109.412.42-.192.604-.689.411-1.109-.141-.307-.443-.488-.76-.488-.117,0-.235.024-.348.076m5.954-.134c-.288.058-.475.338-.418.626.057.289.338.476.626.418.289-.057.476-.338.418-.627-.051-.253-.273-.428-.522-.428-.034,0-.07.003-.105.01m-1.874-.427c-.316.137-.464.504-.326.821.136.317.504.464.822.327.316-.137.463-.505.327-.822-.102-.237-.332-.378-.574-.378-.083,0-.167.017-.248.051m4.834-.22c-.175.035-.289.206-.253.382.035.175.205.288.382.254.175-.035.289-.206.253-.382-.031-.154-.166-.26-.317-.26-.022,0-.043.002-.065.007m-7.645-.562c-.313.243-.371.693-.127,1.007.242.313.693.371,1.007.128.313-.242.369-.693.127-1.007-.141-.183-.353-.278-.567-.278-.153,0-.308.049-.439.15m-3.079.085c-.298.353-.255.88.099,1.179.352.299.88.255,1.178-.099.299-.352.254-.88-.098-1.178-.157-.133-.35-.198-.541-.198-.237,0-.473.101-.638.296m8.88-.367c-.259.108-.38.404-.273.661.106.259.403.381.662.273.257-.108.379-.403.273-.661-.082-.195-.27-.312-.468-.312-.065,0-.13.013-.194.039m-1.969-.28c-.272.111-.404.422-.292.694.111.272.421.403.694.292.273-.11.404-.421.292-.694-.084-.206-.283-.332-.492-.332-.067,0-.135.013-.201.04m-1.857-.009c-.29.188-.372.576-.184.865.188.289.576.371.864.183.29-.189.372-.575.185-.865-.12-.185-.321-.285-.526-.285-.117,0-.235.033-.34.101m6.465-.51c-.133.055-.194.207-.141.339.055.133.206.195.339.141.132-.055.195-.207.141-.339-.041-.1-.138-.161-.24-.161-.033,0-.066.006-.099.02m-1.757-.549c-.166.066-.248.255-.182.421.067.166.255.248.422.181.166-.066.247-.254.181-.421-.05-.127-.173-.204-.302-.204-.04,0-.08.007-.119.023m-8.48.28c-.221.329-.132.774.198.995.329.22.775.132.996-.198.22-.329.131-.775-.198-.996-.122-.082-.261-.121-.398-.121-.232,0-.459.112-.598.32m2.552-.485c-.243.245-.243.641.002.884.245.243.641.243.884-.002.244-.246.243-.641-.002-.884-.122-.122-.281-.183-.441-.183-.161,0-.321.062-.443.184m3.988-.259c-.236.151-.304.464-.152.699.15.236.463.304.699.152.235-.151.303-.463.154-.698-.097-.151-.261-.233-.428-.233-.093,0-.188.026-.272.08m-2.128-.097c-.245.162-.313.492-.152.738.162.246.492.314.738.151.245-.162.313-.492.151-.737-.102-.155-.272-.24-.445-.24-.101,0-.202.029-.292.088m-3.221-.616c-.193.286-.118.675.169.868.286.193.675.117.868-.169.193-.287.117-.674-.17-.868-.107-.072-.228-.106-.348-.106-.201,0-.399.097-.518.276m7.661-.751c-.119.079-.152.24-.072.359.078.12.239.152.359.073.119-.079.151-.24.073-.359-.05-.076-.133-.116-.217-.116-.049,0-.099.014-.143.043m-5.962-.003c-.209.208-.211.544-.004.753.207.209.543.211.753.003.209-.206.21-.544.003-.752-.104-.105-.242-.158-.379-.158-.135,0-.27.051-.373.154m4.019-.332c-.148.099-.19.3-.091.449.099.149.299.19.449.092.149-.099.19-.3.091-.449-.062-.094-.166-.145-.271-.145-.062,0-.124.017-.179.054m-2.032-.092c-.199.197-.2.517-.004.715.197.199.517.2.717.003.198-.197.199-.517.003-.716-.099-.1-.229-.15-.359-.15-.129,0-.258.049-.357.147m-1.897-1.425c-.155.232-.094.546.139.701.231.156.546.094.702-.138.155-.233.094-.546-.138-.702-.087-.058-.185-.086-.282-.086-.163,0-.323.078-.421.224m4.103-.248c-.102.1-.104.264-.005.367.1.103.264.105.367.005.103-.1.105-.264.005-.367-.051-.052-.118-.078-.186-.078-.065,0-.131.024-.182.073m-1.992.016c-.128.124-.131.33-.006.458.126.128.331.131.458.006.128-.125.13-.331.005-.459-.063-.065-.147-.098-.231-.098-.082,0-.163.031-.227.093m-.185-1.782c-.082.118-.052.279.066.361.118.081.279.052.361-.066.082-.118.052-.279-.065-.361-.045-.031-.097-.046-.148-.046-.082,0-.163.039-.214.112"/></clipPath><linearGradient id="linear-gradient" x1="-331.025" y1="-114.332" x2="-330.733" y2="-114.332" gradientTransform="translate(15406.44 -5294.639) scale(46.465 -46.465)" gradientUnits="userSpaceOnUse"><stop offset="0" stop-color="#eb5f21"/><stop offset="1" stop-color="#fff"/></linearGradient><clipPath id="clippath-2"><rect class="cls-2" x="8.953" y="2.794" width="29.873" height="29.873"/></clipPath></defs><g id="ERC"><g class="cls-1"><g class="cls-6"><rect class="cls-3" x="25.137" y="5.389" width="13.689" height="24.895"/></g><g class="cls-7"><path class="cls-5" d="m25.302,13.087c-.124.445-.586.705-1.031.581-.445-.124-.704-.586-.58-1.031.123-.445.585-.704,1.03-.58.445.124.704.586.581,1.03"/><path class="cls-5" d="m23.361,22.491c.042-.46.449-.799.908-.758.461.042.799.449.758.909-.041.459-.448.799-.908.757-.46-.041-.799-.448-.758-.908"/><path class="cls-5" d="m21.557,21.914c.215-.409.722-.565,1.13-.35.408.216.564.722.349,1.13-.215.409-.722.564-1.13.349-.408-.215-.564-.722-.349-1.13"/><path class="cls-5" d="m20.064,20.619c.361-.288.887-.229,1.175.133.288.362.228.887-.133,1.175-.361.288-.888.228-1.176-.134-.288-.361-.228-.888.134-1.175"/><path class="cls-5" d="m19.218,18.847c.446-.12.905.144,1.025.59.119.447-.145.905-.593,1.025-.445.12-.904-.145-1.024-.591-.119-.446.146-.905.592-1.024"/><path class="cls-5" d="m19.136,16.963c.458.06.781.48.72.939-.06.458-.481.78-.939.719-.458-.06-.781-.481-.72-.939.061-.458.482-.78.939-.719"/><path class="cls-5" d="m19.822,15.13c.397.237.526.751.288,1.148-.238.395-.751.525-1.147.286-.397-.237-.524-.751-.288-1.147.238-.396.752-.524,1.148-.287"/><path class="cls-5" d="m21.179,13.72c.27.376.183.898-.192,1.167-.376.269-.898.183-1.167-.193-.27-.375-.184-.897.192-1.166.375-.27.898-.183,1.167.192"/><path class="cls-5" d="m23.205,12.929c.077.456-.229.888-.685.965-.456.077-.887-.23-.964-.686-.077-.455.23-.887.686-.964.455-.077.886.23.963.685"/><path class="cls-5" d="m24.631,24.701c0,.396-.321.718-.718.718s-.716-.322-.716-.718.321-.717.716-.717.718.322.718.717"/><path class="cls-5" d="m26.797,24.109c.125.376-.078.782-.453.908-.376.125-.783-.078-.908-.454-.126-.376.077-.782.453-.908.376-.125.783.078.908.454"/><path class="cls-5" d="m23.152,10.789c.012-.397.343-.707.739-.695.397.013.708.344.695.74-.013.396-.346.707-.741.694-.397-.012-.707-.344-.694-.739"/><path class="cls-5" d="m25.275,10.849c.126-.376.533-.578.909-.452.376.127.578.534.451.909-.126.376-.533.578-.908.452-.376-.126-.578-.533-.452-.909"/><path class="cls-5" d="m21.035,11.386c-.117-.378.095-.781.473-.897s.78.095.898.473c.117.379-.095.781-.474.898-.378.118-.781-.095-.897-.474"/><path class="cls-5" d="m19.098,12.71c-.239-.316-.176-.767.141-1.005.316-.239.766-.176,1.005.14.239.316.176.767-.141,1.005-.316.239-.766.176-1.004-.14"/><path class="cls-5" d="m17.067,16.363c-.374-.131-.572-.54-.441-.914.131-.374.54-.571.915-.441.374.131.571.541.44.915-.131.374-.54.571-.914.44"/><path class="cls-5" d="m17.761,14.346c-.327-.224-.409-.671-.185-.998.225-.326.671-.41.998-.185.327.224.41.672.185.998-.225.327-.671.41-.998.185"/><path class="cls-5" d="m16.945,18.518c-.396-.015-.706-.347-.691-.744.015-.396.347-.706.743-.691s.705.347.692.743c-.014.396-.347.706-.744.692"/><path class="cls-5" d="m17.513,20.65c-.38.112-.78-.106-.89-.486-.112-.38.106-.779.486-.891.38-.111.779.106.89.487.112.381-.105.779-.486.891"/><path class="cls-5" d="m18.755,22.498c-.321.234-.769.165-1.004-.155-.234-.32-.165-.769.155-1.004.32-.234.769-.165,1.003.155.234.319.166.769-.154,1.003"/><path class="cls-5" d="m22.237,24.579c-.137.372-.549.564-.921.427-.372-.136-.564-.548-.427-.921.136-.372.548-.564.921-.427.372.136.563.548.427.92"/><path class="cls-5" d="m20.425,23.842c-.229.323-.677.4-1.001.171-.322-.229-.4-.677-.171-1.001.229-.323.677-.4,1.001-.171.323.229.399.677.171,1"/><path class="cls-5" d="m24.538,8.957c0,.346-.279.625-.626.625-.344,0-.624-.28-.624-.625s.28-.625.624-.625c.346,0,.626.28.626.625"/><path class="cls-5" d="m26.243,9.254c-.068.339-.397.558-.735.49-.339-.067-.559-.397-.491-.735.067-.339.397-.559.736-.491.338.068.557.397.49.736"/><path class="cls-5" d="m27.778,9.838c-.129.32-.494.475-.814.346-.321-.129-.474-.494-.346-.814.129-.32.493-.474.814-.346.32.129.475.494.346.814"/><path class="cls-5" d="m15.111,17.149c.346-.003.627.275.63.621.002.345-.276.627-.62.63-.346.002-.627-.276-.63-.62-.003-.346.275-.627.62-.63"/><path class="cls-5" d="m15.395,15.442c.339.065.561.393.497.732-.065.339-.393.561-.732.496-.34-.065-.561-.392-.496-.732.064-.339.392-.561.731-.496"/><path class="cls-5" d="m15.968,13.903c.321.127.478.49.351.811-.127.321-.491.478-.811.351-.321-.127-.478-.49-.351-.811.127-.321.49-.478.811-.352"/><path class="cls-5" d="m16.934,12.344c.287.191.366.578.176.866-.191.288-.579.367-.867.176-.287-.19-.366-.578-.176-.866.19-.288.578-.367.867-.176"/><path class="cls-5" d="m18.08,11.125c.246.242.25.638.008.884-.242.247-.637.25-.884.009-.247-.242-.25-.638-.008-.884.242-.246.637-.251.884-.008"/><path class="cls-5" d="m19.502,10.1c.19.288.111.676-.177.866-.288.19-.676.111-.866-.177-.19-.288-.112-.676.177-.866.288-.19.675-.111.866.177"/><path class="cls-5" d="m20.951,9.438c.139.316-.006.685-.321.824s-.684-.004-.823-.32c-.139-.316.005-.685.32-.824.316-.139.685.004.825.32"/><path class="cls-5" d="m22.657,9.047c.08.336-.126.673-.462.753-.336.081-.673-.126-.753-.462-.081-.336.126-.673.461-.753.337-.08.673.126.754.462"/><path class="cls-5" d="m23.303,26.512c-.003-.346.275-.627.621-.629.345-.003.626.275.629.62.002.346-.276.627-.621.63-.345.003-.627-.276-.629-.62"/><path class="cls-5" d="m21.595,26.227c.066-.339.394-.561.733-.495.339.065.561.393.495.732-.065.339-.393.561-.732.496-.339-.065-.56-.393-.496-.732"/><path class="cls-5" d="m20.058,25.653c.127-.321.491-.478.811-.351.321.127.479.49.352.812-.127.321-.491.478-.811.35-.321-.127-.479-.49-.352-.811"/><path class="cls-5" d="m18.498,24.686c.192-.288.579-.367.867-.176.288.191.366.579.175.867-.19.288-.578.367-.866.175-.288-.191-.366-.579-.176-.866"/><path class="cls-5" d="m17.281,23.54c.241-.246.637-.25.883-.008.247.242.25.638.009.884-.242.246-.638.25-.884.008-.247-.242-.25-.638-.008-.884"/><path class="cls-5" d="m16.256,22.117c.287-.19.676-.111.866.177.19.288.111.676-.178.867-.289.19-.676.111-.866-.178-.191-.288-.111-.675.177-.865"/><path class="cls-5" d="m15.595,20.668c.316-.139.685.005.823.321.14.316-.004.685-.32.823-.315.139-.684-.005-.822-.321-.14-.316.004-.685.32-.824"/><path class="cls-5" d="m15.205,18.961c.335-.081.673.127.753.462.08.336-.127.674-.463.754-.335.081-.673-.126-.752-.462-.081-.336.126-.673.462-.753"/><path class="cls-5" d="m26.704,26.069c-.134-.318.015-.685.334-.819.318-.134.683.015.818.333.135.318-.015.685-.332.819-.318.134-.684-.015-.819-.333"/><path class="cls-5" d="m24.992,26.435c-.076-.337.136-.671.473-.747.336-.076.671.136.746.474.076.337-.136.671-.473.746-.337.076-.67-.136-.746-.473"/><path class="cls-5" d="m23.288,7.475c0,.294-.238.533-.532.533s-.533-.239-.533-.533.238-.533.533-.533.532.239.532.533"/><path class="cls-5" d="m25.67,7.624c-.067.286-.354.464-.64.395-.287-.067-.464-.354-.397-.64.069-.286.356-.463.642-.396.286.068.462.355.394.641"/><path class="cls-5" d="m27.519,8.141c-.119.268-.434.389-.702.269-.269-.12-.389-.435-.27-.704.12-.268.435-.389.704-.269.268.12.389.435.268.704"/><path class="cls-5" d="m29.161,8.944c-.165.243-.497.306-.74.141-.242-.166-.305-.497-.139-.74.165-.243.497-.306.739-.14.244.166.305.497.14.74"/><path class="cls-5" d="m28.226,27.023c-.111-.273.02-.584.292-.695.272-.111.584.02.695.293.111.273-.02.583-.292.695-.273.11-.583-.021-.694-.293"/><path class="cls-5" d="m26.368,27.689c-.057-.289.131-.569.42-.626.289-.057.568.131.625.42.057.288-.131.568-.42.625-.29.057-.569-.131-.625-.419"/><path class="cls-5" d="m24.459,27.986c0-.294.237-.534.53-.536.295-.002.534.236.535.53.003.294-.236.534-.529.536-.294.002-.533-.236-.536-.53"/><path class="cls-5" d="m22.175,27.868c.065-.287.348-.469.636-.406.287.063.468.348.404.635-.062.287-.348.468-.635.405-.287-.063-.468-.348-.405-.634"/><path class="cls-5" d="m20.501,27.445c.112-.273.421-.405.694-.293.272.11.404.421.293.694-.111.273-.422.404-.695.293-.271-.111-.404-.421-.293-.694"/><path class="cls-5" d="m18.308,26.384c.171-.239.505-.293.743-.122.239.172.294.505.122.744-.172.239-.505.293-.744.122-.238-.172-.293-.505-.121-.744"/><path class="cls-5" d="m16.899,25.301c.211-.206.548-.202.754.008.205.21.201.548-.009.753-.211.206-.548.202-.753-.008-.206-.211-.202-.548.008-.753"/><path class="cls-5" d="m15.567,23.815c.246-.16.577-.092.737.154.162.246.094.576-.153.737-.247.162-.576.092-.737-.153-.162-.246-.093-.576.153-.738"/><path class="cls-5" d="m14.62,22.253c.271-.115.585.011.698.282.116.271-.011.583-.281.698-.271.115-.583-.012-.699-.282-.115-.271.012-.583.282-.698"/><path class="cls-5" d="m13.986,20.618c.286-.067.574.111.64.397.068.287-.11.573-.397.64-.286.067-.573-.111-.64-.397-.067-.286.11-.573.397-.64"/><path class="cls-5" d="m13.594,18.42c.296-.004.537.232.541.526.003.294-.232.535-.526.539s-.535-.232-.541-.525c-.002-.294.233-.535.526-.539"/><path class="cls-5" d="m13.676,16.274c.288.058.476.338.418.627-.058.288-.339.476-.627.418-.288-.057-.475-.338-.418-.626.057-.288.338-.476.626-.419"/><path class="cls-5" d="m14.169,14.282c.271.114.399.426.285.697-.114.271-.425.399-.697.285-.271-.114-.399-.425-.286-.697.114-.271.426-.398.697-.285"/><path class="cls-5" d="m15.062,12.405c.243.166.305.498.139.741-.166.243-.498.305-.741.139-.242-.166-.305-.497-.139-.741.166-.242.498-.304.741-.139"/><path class="cls-5" d="m16.354,10.701c.204.213.197.551-.016.753-.212.203-.549.196-.753-.017-.203-.213-.195-.55.017-.753.212-.203.549-.195.752.017"/><path class="cls-5" d="m17.767,9.451c.161.246.092.577-.155.737-.244.161-.575.092-.737-.154-.16-.247-.09-.577.155-.738.246-.16.576-.091.737.155"/><path class="cls-5" d="m19.375,8.483c.113.272-.015.584-.287.697-.271.114-.583-.014-.696-.286-.114-.271.015-.583.285-.697.271-.114.583.015.697.285"/><path class="cls-5" d="m21.277,7.786c.058.289-.128.57-.418.627-.287.059-.569-.128-.627-.417-.058-.288.129-.569.418-.627.288-.058.569.129.627.417"/><path class="cls-5" d="m21.992,5.939c.055.275-.122.541-.397.596-.273.055-.54-.122-.595-.396-.055-.274.123-.541.397-.596.274-.055.54.122.596.396"/><path class="cls-5" d="m24.432,5.799c-.003.28-.231.505-.509.503-.28-.002-.505-.229-.504-.509.002-.28.231-.504.509-.503.28.002.504.23.504.509"/><path class="cls-5" d="m27.199,6.255c-.067.272-.342.437-.613.37-.271-.067-.437-.341-.37-.612.067-.271.341-.437.612-.37.271.067.436.342.37.612"/><path class="cls-5" d="m29.089,6.978c-.112.257-.411.374-.666.262-.256-.111-.373-.41-.262-.666.112-.257.411-.373.666-.262.257.112.373.41.262.666"/><path class="cls-5" d="m27.899,28.984c-.104-.26.022-.555.28-.658.26-.104.555.022.659.282.103.26-.022.554-.281.658-.259.103-.553-.023-.658-.282"/><path class="cls-5" d="m25.725,29.535c-.053-.275.125-.541.4-.595.275-.053.54.125.594.399.054.275-.125.541-.4.594-.274.053-.539-.125-.594-.399"/><path class="cls-5" d="m23.178,29.656c.006-.28.237-.502.516-.496.28.005.501.237.495.516-.006.279-.236.501-.516.496-.279-.007-.501-.237-.495-.516"/><path class="cls-5" d="m20.898,29.297c.06-.273.329-.446.602-.387.273.059.447.329.387.602-.06.274-.329.447-.602.387-.273-.06-.446-.329-.387-.602"/><path class="cls-5" d="m18.651,28.467c.114-.256.412-.372.668-.26.255.113.371.411.259.667-.114.256-.412.372-.667.259-.256-.113-.372-.411-.259-.667"/><path class="cls-5" d="m16.373,27.015c.167-.225.484-.27.708-.103.224.168.269.485.101.708-.166.225-.483.27-.707.103-.223-.167-.269-.484-.102-.708"/><path class="cls-5" d="m15.004,25.716c.202-.195.522-.19.717.01.194.2.19.521-.01.716-.201.194-.521.19-.716-.011-.194-.2-.191-.52.009-.714"/><path class="cls-5" d="m13.65,23.881c.234-.153.548-.087.701.145.153.234.087.548-.147.701-.233.154-.547.087-.7-.147-.152-.233-.087-.546.146-.699"/><path class="cls-5" d="m12.78,22.118c.257-.113.555.003.668.259.112.255-.003.554-.26.667-.256.112-.554-.003-.667-.259-.112-.256.004-.554.259-.666"/><path class="cls-5" d="m12.132,19.834c.274-.059.544.113.604.386.059.273-.113.543-.386.603-.274.06-.543-.113-.604-.387-.058-.272.113-.542.386-.602"/><path class="cls-5" d="m11.951,17.356c.28-.001.508.222.511.502.002.279-.223.508-.502.51-.28.002-.508-.223-.51-.502-.002-.279.223-.507.501-.509"/><path class="cls-5" d="m12.277,14.94c.274.055.452.321.398.595-.055.274-.322.452-.596.397-.275-.055-.452-.321-.397-.595.055-.273.322-.451.595-.397"/><path class="cls-5" d="m13.028,12.762c.259.107.383.402.276.66-.106.258-.403.382-.66.276-.259-.107-.383-.402-.277-.661.108-.258.403-.381.661-.275"/><path class="cls-5" d="m14.201,10.747c.232.155.297.469.143.702-.154.232-.469.297-.701.142-.234-.155-.297-.468-.142-.702.154-.232.468-.295.701-.142"/><path class="cls-5" d="m15.975,8.785c.194.203.187.522-.015.716-.202.193-.522.186-.715-.016-.194-.202-.187-.521.016-.716.201-.192.521-.185.714.016"/><path class="cls-5" d="m17.68,7.529c.154.234.091.547-.141.702-.234.155-.549.091-.703-.142-.154-.233-.091-.547.142-.701.234-.154.546-.091.701.142"/><path class="cls-5" d="m19.747,6.529c.107.259-.015.554-.273.662-.258.107-.555-.016-.661-.274-.107-.259.015-.554.274-.662.258-.106.554.017.66.274"/><path class="cls-5" d="m22.872,4.488c0,.18-.145.325-.324.325s-.325-.145-.325-.325c0-.178.145-.324.325-.324s.324.146.324.324"/><path class="cls-5" d="m24.103,3.053c0,.143-.116.259-.259.259s-.26-.116-.26-.259.116-.26.26-.26.259.116.259.26"/><path class="cls-5" d="m27.568,3.519c-.034.139-.173.225-.313.191-.139-.034-.225-.174-.19-.313.034-.139.174-.224.313-.191.138.034.224.175.19.313"/><path class="cls-5" d="m30.232,4.492c-.06.13-.215.187-.345.127-.13-.06-.187-.213-.126-.344.06-.129.213-.187.343-.127.129.06.187.214.127.344"/><path class="cls-5" d="m29.025,31.485c-.052-.133.015-.284.147-.336.134-.052.285.014.335.148.053.133-.014.284-.147.335-.132.053-.283-.013-.335-.147"/><path class="cls-5" d="m26.344,32.206c-.027-.141.067-.276.207-.302.141-.026.277.067.302.208.027.141-.066.276-.208.303-.14.026-.276-.068-.301-.208"/><path class="cls-5" d="m23.295,32.401c.003-.143.123-.257.265-.253.143.005.257.124.252.267-.002.143-.122.257-.265.252-.143-.004-.256-.124-.252-.266"/><path class="cls-5" d="m20.228,31.949c.034-.14.175-.225.313-.191.139.034.225.174.191.313-.034.139-.173.225-.313.192-.139-.034-.225-.175-.191-.313"/><path class="cls-5" d="m17.515,30.956c.061-.13.214-.186.344-.126.13.061.187.215.126.344-.06.13-.214.187-.344.127-.13-.06-.186-.215-.126-.344"/><path class="cls-5" d="m14.899,29.336c.086-.115.248-.139.363-.052.114.087.137.249.051.363-.085.115-.249.138-.363.052-.114-.086-.138-.249-.051-.363"/><path class="cls-5" d="m12.991,27.566c.104-.098.269-.091.366.014.097.106.092.27-.013.366-.105.098-.27.093-.366-.013-.098-.105-.091-.269.013-.367"/><path class="cls-5" d="m11.461,25.543c.12-.078.281-.043.358.077.078.12.044.28-.076.357-.121.078-.28.045-.359-.076-.078-.121-.044-.281.077-.359"/><path class="cls-5" d="m10.401,23.525c.131-.059.285,0,.343.131.058.131,0,.285-.131.342-.131.059-.285,0-.344-.131-.057-.131,0-.284.131-.342"/><path class="cls-5" d="m9.556,20.9c.14-.033.279.053.312.192.032.14-.053.279-.193.312-.14.034-.279-.053-.312-.193-.033-.139.053-.279.192-.312"/><path class="cls-5" d="m9.21,17.664c.144-.002.261.112.262.256,0,.143-.114.261-.256.262-.144.001-.261-.113-.263-.256-.002-.143.114-.261.257-.261"/><path class="cls-5" d="m9.48,14.93c.141.025.235.159.21.3-.026.141-.16.235-.3.209-.142-.024-.235-.159-.21-.301.025-.141.159-.235.3-.209"/><path class="cls-5" d="m10.375,12c.133.054.197.205.143.337-.054.133-.206.197-.338.142-.133-.054-.197-.205-.143-.338.054-.132.205-.196.338-.142"/><path class="cls-5" d="m11.832,9.359c.119.08.15.241.07.36-.081.119-.242.151-.359.07-.12-.08-.152-.241-.071-.36.08-.119.241-.15.36-.07"/><path class="cls-5" d="m13.8,7.069c.101.103.099.267-.004.366-.103.101-.268.098-.366-.005-.101-.102-.099-.267.004-.367.103-.1.266-.097.366.005"/><path class="cls-5" d="m16.063,5.312c.078.12.044.281-.076.359-.12.078-.282.044-.358-.076-.079-.12-.045-.28.075-.359.12-.078.28-.043.358.076"/><path class="cls-5" d="m18.725,3.99c.053.134-.013.284-.146.336-.133.052-.284-.013-.335-.147-.053-.134.013-.284.146-.336.133-.052.283.014.335.147"/><path class="cls-5" d="m21.18,3.304c.029.141-.062.277-.202.306-.141.028-.278-.062-.306-.202-.029-.141.062-.278.203-.306.14-.029.276.062.305.202"/><path class="cls-5" d="m25.857,4.596c-.04.174-.214.283-.389.243-.173-.04-.284-.214-.243-.388.04-.174.213-.283.388-.243.174.04.283.214.243.389"/><path class="cls-5" d="m28.527,5.285c-.075.162-.267.233-.43.158-.163-.075-.233-.268-.158-.43.075-.163.268-.234.43-.158.163.075.232.268.158.43"/><path class="cls-5" d="m30.602,6.27c-.102.147-.304.183-.451.082-.147-.103-.184-.304-.082-.451.103-.147.305-.184.452-.081.147.101.185.304.082.451"/><path class="cls-5" d="m29.863,29.595c-.068-.165.01-.355.178-.422.164-.068.354.011.422.177.067.166-.01.355-.176.423-.166.068-.355-.012-.423-.177"/><path class="cls-5" d="m27.463,30.525c-.036-.176.078-.346.255-.381.176-.035.346.08.381.255.036.176-.079.347-.254.381-.176.035-.347-.079-.381-.255"/><path class="cls-5" d="m24.712,30.989c.003-.179.149-.322.329-.32.178.003.322.15.318.329-.002.179-.149.322-.328.319-.179-.003-.322-.15-.319-.329"/><path class="cls-5" d="m21.812,30.851c.042-.174.216-.282.391-.24.173.041.281.216.239.39-.041.174-.215.281-.391.24-.173-.042-.28-.216-.239-.39"/><path class="cls-5" d="m19.486,30.263c.072-.164.264-.238.429-.166.162.073.237.264.164.428-.071.164-.262.238-.427.166-.164-.072-.238-.263-.167-.427"/><path class="cls-5" d="m16.866,29.006c.106-.144.309-.175.453-.069.145.106.175.309.068.453-.105.145-.308.176-.452.07-.144-.106-.175-.309-.07-.453"/><path class="cls-5" d="m14.846,27.46c.132-.121.337-.113.458.019.121.131.113.337-.019.458-.131.121-.336.113-.458-.018-.122-.131-.113-.336.018-.458"/><path class="cls-5" d="m13.302,25.751c.15-.097.35-.053.448.098.096.15.053.351-.099.447-.15.097-.35.055-.447-.096-.097-.151-.053-.352.098-.448"/><path class="cls-5" d="m12.102,23.854c.166-.07.355.006.426.171.071.164-.006.355-.171.425-.164.07-.355-.006-.425-.171-.07-.165.007-.356.171-.425"/><path class="cls-5" d="m11.185,21.606c.176-.039.348.071.387.246.039.175-.071.348-.247.386-.174.039-.347-.071-.386-.246-.039-.174.071-.348.245-.386"/><path class="cls-5" d="m10.648,18.757c.179,0,.325.145.325.324s-.145.324-.325.324c-.177,0-.323-.144-.324-.324,0-.179.145-.324.324-.324"/><path class="cls-5" d="m10.692,16.244c.176.033.291.203.258.379-.034.176-.204.291-.379.257-.176-.033-.291-.203-.258-.379.034-.176.203-.291.379-.257"/><path class="cls-5" d="m11.252,13.645c.166.068.245.257.177.423-.067.166-.257.245-.423.176-.166-.068-.245-.257-.177-.423.068-.165.258-.244.423-.176"/><path class="cls-5" d="m12.316,11.216c.148.1.189.301.09.45-.099.149-.302.189-.449.089-.149-.099-.19-.301-.09-.449.099-.148.301-.188.45-.089"/><path class="cls-5" d="m13.969,8.901c.125.128.12.334-.008.459-.13.124-.334.12-.458-.009-.124-.129-.121-.334.008-.458.128-.124.334-.12.458.008"/><path class="cls-5" d="m15.903,7.119c.096.15.052.351-.099.447-.151.097-.352.052-.446-.099-.097-.151-.053-.351.098-.448.151-.097.351-.052.448.099"/><path class="cls-5" d="m18.015,5.82c.068.165-.013.355-.179.421-.165.066-.355-.014-.421-.181-.067-.165.014-.355.18-.421.165-.066.354.015.42.18"/><path class="cls-5" d="m20.454,4.902c.033.176-.083.345-.259.378-.176.033-.345-.083-.377-.259-.034-.176.082-.346.258-.378.176-.033.347.083.378.259"/><path class="cls-4" d="m27.255,19.465c-.819,1.096-1.875,1.677-3.222,1.677-1.73,0-3.394-1.096-3.394-3.526,0-2.219,1.426-3.473,3.289-3.473,1.743,0,2.47,1.043,2.602,1.242.541.766.66,1.915.673,2.575h-4.886c.185,1.043.832,1.638,1.875,1.638,1.083,0,1.518-.634,1.717-.911l1.347.779Zm-1.796-2.668c-.146-1.03-.78-1.387-1.479-1.387-.845,0-1.427.489-1.611,1.387h3.09Z"/><path class="cls-4" d="m29.989,14.341v.937c.198-.343.634-1.123,2.113-1.083v1.625c-.343.013-.937.026-1.426.396-.673.515-.687,1.188-.687,2.285v2.443h-1.532v-6.603h1.532Z"/><path class="cls-4" d="m37.12,16.679c-.119-.436-.581-1.123-1.492-1.123s-1.638.726-1.638,2.047c0,1.188.621,2.06,1.664,2.06,1.004,0,1.387-.766,1.585-1.295l1.36.713c-.515,1.426-1.822,2.06-2.971,2.06-1.836,0-3.275-1.413-3.275-3.5,0-2.021,1.452-3.5,3.328-3.5,1.664,0,2.509,1.109,2.852,1.875l-1.413.66Z"/></g></g></g></svg>